<svg width="177" height="58" viewBox="0 0 177 58" fill="none" xmlns="http://www.w3.org/2000/svg">
<g clip-path="url(#clip0_2579_11587)">
<path fill-rule="evenodd" clip-rule="evenodd" d="M72 44.5C75.3 44.5 77.2 45.9 77.2 48.3C77.2 49.6 76.4 50.5 75.2 50.9C77.1 51.4 78.1 52.5 78.1 54.2C78.1 56.7 75.9 58 72.1 58H66.7V44.5H72ZM92.5 44.5V47.8H86.1V49.8H91.5V52.9H86.1V54.8H92.6V58H82.5V44.5H92.5ZM103 44.5C106.8 44.5 109 46.3 109 49.5C109 51.5 108.1 52.9 106.4 53.6L109.4 57.7V58H105.6L102.9 54.2H101V58H97.4V44.5H103ZM117.1 44.5V54.7H123.1V58H113.5V44.5H117.1ZM131.3 44.5V58H127.7V44.5H131.3ZM140 44.5L145.7 52.2V51.2V44.5H149.3V58H146L140.3 50.4V51.5V58H136.7V44.5H140ZM72.4 52.4H70.2V55H72.1C73.5 55 74.3 54.5 74.3 53.7C74.4 52.9 73.7 52.4 72.4 52.4ZM103 47.6H101V51.4H103C104.5 51.4 105.3 50.7 105.3 49.5C105.4 48.3 104.5 47.6 103 47.6ZM72 47.4H70.2V49.6H72.4C73.3 49.6 73.8 49.2 73.8 48.5C73.8 47.8 73.2 47.4 72 47.4ZM102.4 22C106.7 22 109.2 24.5 109.2 29C109.2 33.4 106.6 35.9 102.4 35.9C98.1 35.9 95.6 33.4 95.6 29C95.6 24.6 98.1 22 102.4 22ZM119.9 22.3V30.4C119.9 34.2 118.6 35.9 115.3 35.9C113.8 35.9 112.2 35.4 110.8 34.7L111.6 32.1C112.7 32.4 113.5 32.6 114.5 32.6C115.7 32.6 116.3 31.9 116.3 30.3V22.2H119.9V22.3ZM72.1 22.3C75.9 22.3 78 24.2 78 27.5C78 30.8 75.9 32.6 72.2 32.6H70.3V35.7H66.7V22.3H72.1ZM133.8 22.3V25.6H127.4V27.6H132.8V30.7H127.4V32.6H133.9V35.8H123.8V22.3H133.8ZM141.1 22.3V28.3L146.1 22.3H150V22.5L145.2 28.3L150.3 35.5V35.7H146.2L142.9 31.1L141.2 33.2V35.8H137.6V22.3H141.1ZM86.9 22.3C90.7 22.3 92.9 24.1 92.9 27.3C92.9 29.3 92 30.7 90.3 31.4L93.3 35.5V35.8H89.5L86.8 32H85V35.8H81.4V22.3H86.9ZM176.8 22.3V25.6H170.4V27.6H175.8V30.7H170.4V32.6H176.9V35.8H166.8V22.3H176.8ZM163.9 22.3V25.6H159.7V35.8H156.1V25.5H151.9V22.2H163.9V22.3ZM102.4 25.3C100.4 25.3 99.2 26.6 99.2 29.1C99.2 31.5 100.4 32.8 102.4 32.8C104.4 32.8 105.6 31.5 105.6 29.1C105.6 26.5 104.4 25.3 102.4 25.3ZM72 25.3H70.2V29.5H72.1C73.6 29.5 74.4 28.7 74.4 27.4C74.5 26.1 73.6 25.3 72 25.3ZM87 25.3H85V29.1H87C88.5 29.1 89.3 28.4 89.3 27.2C89.3 26.1 88.5 25.3 87 25.3ZM85.3 0.0999756V7.09998C85.3 9.39998 86.2 10.5 87.8 10.5C89.5 10.5 90.4 9.39998 90.4 7.09998V0.0999756H94V7.09998C94 11.6 92 13.7 87.8 13.7C83.7 13.7 81.6 11.6 81.6 7.09998V0.0999756H85.3ZM125.5 0.0999756V7.09998C125.5 9.39998 126.4 10.5 128 10.5C129.7 10.5 130.6 9.39998 130.6 7.09998V0.0999756H134.2V7.09998C134.2 11.6 132.2 13.7 128 13.7C123.9 13.7 121.8 11.6 121.8 7.09998V0.0999756H125.5ZM70.3 0.0999756V6.09998L75.3 0.0999756H79.2V0.299976L74.4 6.09998L79.5 13.3V13.5H75.4L72 8.89997L70.3 11V13.6H66.7V0.0999756H70.3ZM101.3 0.0999756V10.3H107.3V13.6H97.7V0.0999756H101.3ZM119.2 0.0999756V3.39998H115V13.6H111.4V3.29998H107.2V0.0999756H119.2ZM143.5 0.0999756C147.3 0.0999756 149.5 1.89998 149.5 5.09998C149.5 7.09998 148.6 8.49998 146.9 9.19998L149.9 13.3V13.6H146.1L143.4 9.79998H141.6V13.6H138V0.0999756H143.5ZM143.6 3.09998H141.6V6.99998H143.6C145.1 6.99998 145.9 6.29998 145.9 5.09998C145.9 3.89998 145.1 3.09998 143.6 3.09998Z" fill="black"/>
<g clip-path="url(#clip1_2579_11587)">
<path fill-rule="evenodd" clip-rule="evenodd" d="M58.1 0V58H0V0H58.1ZM36.3 21.7H21.8V36.2H36.3V21.7Z" fill="black"/>
</g>
</g>
<defs>
<clipPath id="clip0_2579_11587">
<rect width="177" height="58" fill="white"/>
</clipPath>
<clipPath id="clip1_2579_11587">
<rect width="58.1" height="58" fill="white"/>
</clipPath>
</defs>
</svg>
